<svg id="my-svg" width="100%" xmlns="http://www.w3.org/2000/svg" xmlns:xlink="http://www.w3.org/1999/xlink" class="flowchart" style="max-width: 1260.9px; background-color: transparent;" viewBox="0 0 1260.8984375 780" role="graphics-document document" aria-roledescription="flowchart-v2"><style>#my-svg{font-family:"trebuchet ms",verdana,arial,sans-serif;font-size:16px;fill:#000000;}@keyframes edge-animation-frame{from{stroke-dashoffset:0;}}@keyframes dash{to{stroke-dashoffset:0;}}#my-svg .edge-animation-slow{stroke-dasharray:9,5!important;stroke-dashoffset:900;animation:dash 50s linear infinite;stroke-linecap:round;}#my-svg .edge-animation-fast{stroke-dasharray:9,5!important;stroke-dashoffset:900;animation:dash 20s linear infinite;stroke-linecap:round;}#my-svg .error-icon{fill:#552222;}#my-svg .error-text{fill:#552222;stroke:#552222;}#my-svg .edge-thickness-normal{stroke-width:1px;}#my-svg .edge-thickness-thick{stroke-width:3.5px;}#my-svg .edge-pattern-solid{stroke-dasharray:0;}#my-svg .edge-thickness-invisible{stroke-width:0;fill:none;}#my-svg .edge-pattern-dashed{stroke-dasharray:3;}#my-svg .edge-pattern-dotted{stroke-dasharray:2;}#my-svg .marker{fill:#666;stroke:#666;}#my-svg .marker.cross{stroke:#666;}#my-svg svg{font-family:"trebuchet ms",verdana,arial,sans-serif;font-size:16px;}#my-svg p{margin:0;}#my-svg .label{font-family:"trebuchet ms",verdana,arial,sans-serif;color:#000000;}#my-svg .cluster-label text{fill:#333;}#my-svg .cluster-label span{color:#333;}#my-svg .cluster-label span p{background-color:transparent;}#my-svg .label text,#my-svg span{fill:#000000;color:#000000;}#my-svg .node rect,#my-svg .node circle,#my-svg .node ellipse,#my-svg .node polygon,#my-svg .node path{fill:#eee;stroke:#999;stroke-width:1px;}#my-svg .rough-node .label text,#my-svg .node .label text,#my-svg .image-shape .label,#my-svg .icon-shape .label{text-anchor:middle;}#my-svg .node .katex path{fill:#000;stroke:#000;stroke-width:1px;}#my-svg .rough-node .label,#my-svg .node .label,#my-svg .image-shape .label,#my-svg .icon-shape .label{text-align:center;}#my-svg .node.clickable{cursor:pointer;}#my-svg .root .anchor path{fill:#666!important;stroke-width:0;stroke:#666;}#my-svg .arrowheadPath{fill:#333333;}#my-svg .edgePath .path{stroke:#666;stroke-width:2.0px;}#my-svg .flowchart-link{stroke:#666;fill:none;}#my-svg .edgeLabel{background-color:white;text-align:center;}#my-svg .edgeLabel p{background-color:white;}#my-svg .edgeLabel rect{opacity:0.5;background-color:white;fill:white;}#my-svg .labelBkg{background-color:rgba(255, 255, 255, 0.5);}#my-svg .cluster rect{fill:hsl(0, 0%, 98.9215686275%);stroke:#707070;stroke-width:1px;}#my-svg .cluster text{fill:#333;}#my-svg .cluster span{color:#333;}#my-svg div.mermaidTooltip{position:absolute;text-align:center;max-width:200px;padding:2px;font-family:"trebuchet ms",verdana,arial,sans-serif;font-size:12px;background:hsl(-160, 0%, 93.3333333333%);border:1px solid #707070;border-radius:2px;pointer-events:none;z-index:100;}#my-svg .flowchartTitleText{text-anchor:middle;font-size:18px;fill:#000000;}#my-svg rect.text{fill:none;stroke-width:0;}#my-svg .icon-shape,#my-svg .image-shape{background-color:white;text-align:center;}#my-svg .icon-shape p,#my-svg .image-shape p{background-color:white;padding:2px;}#my-svg .icon-shape rect,#my-svg .image-shape rect{opacity:0.5;background-color:white;fill:white;}#my-svg .label-icon{display:inline-block;height:1em;overflow:visible;vertical-align:-0.125em;}#my-svg .node .label-icon path{fill:currentColor;stroke:revert;stroke-width:revert;}#my-svg :root{--mermaid-font-family:"trebuchet ms",verdana,arial,sans-serif;}</style><g><marker id="my-svg_flowchart-v2-pointEnd" class="marker flowchart-v2" viewBox="0 0 10 10" refX="5" refY="5" markerUnits="userSpaceOnUse" markerWidth="8" markerHeight="8" orient="auto"><path d="M 0 0 L 10 5 L 0 10 z" class="arrowMarkerPath" style="stroke-width: 1; stroke-dasharray: 1, 0;"/></marker><marker id="my-svg_flowchart-v2-pointStart" class="marker flowchart-v2" viewBox="0 0 10 10" refX="4.5" refY="5" markerUnits="userSpaceOnUse" markerWidth="8" markerHeight="8" orient="auto"><path d="M 0 5 L 10 10 L 10 0 z" class="arrowMarkerPath" style="stroke-width: 1; stroke-dasharray: 1, 0;"/></marker><marker id="my-svg_flowchart-v2-circleEnd" class="marker flowchart-v2" viewBox="0 0 10 10" refX="11" refY="5" markerUnits="userSpaceOnUse" markerWidth="11" markerHeight="11" orient="auto"><circle cx="5" cy="5" r="5" class="arrowMarkerPath" style="stroke-width: 1; stroke-dasharray: 1, 0;"/></marker><marker id="my-svg_flowchart-v2-circleStart" class="marker flowchart-v2" viewBox="0 0 10 10" refX="-1" refY="5" markerUnits="userSpaceOnUse" markerWidth="11" markerHeight="11" orient="auto"><circle cx="5" cy="5" r="5" class="arrowMarkerPath" style="stroke-width: 1; stroke-dasharray: 1, 0;"/></marker><marker id="my-svg_flowchart-v2-crossEnd" class="marker cross flowchart-v2" viewBox="0 0 11 11" refX="12" refY="5.2" markerUnits="userSpaceOnUse" markerWidth="11" markerHeight="11" orient="auto"><path d="M 1,1 l 9,9 M 10,1 l -9,9" class="arrowMarkerPath" style="stroke-width: 2; stroke-dasharray: 1, 0;"/></marker><marker id="my-svg_flowchart-v2-crossStart" class="marker cross flowchart-v2" viewBox="0 0 11 11" refX="-1" refY="5.2" markerUnits="userSpaceOnUse" markerWidth="11" markerHeight="11" orient="auto"><path d="M 1,1 l 9,9 M 10,1 l -9,9" class="arrowMarkerPath" style="stroke-width: 2; stroke-dasharray: 1, 0;"/></marker><g class="root"><g class="clusters"><g class="cluster" id="subGraph2" data-look="classic"><rect style="" x="54.3359375" y="210" width="390.6640625" height="384"/><g class="cluster-label" transform="translate(173.23828125, 210)"><foreignObject width="152.859375" height="24"><div xmlns="http://www.w3.org/1999/xhtml" style="display: table-cell; white-space: nowrap; line-height: 1.5; max-width: 200px; text-align: center;"><span class="nodeLabel"><p>Transformation Chain</p></span></div></foreignObject></g></g><g class="cluster" id="subGraph1" data-look="classic"><rect style="" x="146.15625" y="644" width="1106.7421875" height="128"/><g class="cluster-label" transform="translate(615.31640625, 644)"><foreignObject width="168.421875" height="24"><div xmlns="http://www.w3.org/1999/xhtml" style="display: table-cell; white-space: nowrap; line-height: 1.5; max-width: 200px; text-align: center;"><span class="nodeLabel"><p>Generated Components</p></span></div></foreignObject></g></g><g class="cluster" id="subGraph0" data-look="classic"><rect style="" x="8" y="8" width="1116.2265625" height="152"/><g class="cluster-label" transform="translate(487.68359375, 8)"><foreignObject width="156.859375" height="24"><div xmlns="http://www.w3.org/1999/xhtml" style="display: table-cell; white-space: nowrap; line-height: 1.5; max-width: 200px; text-align: center;"><span class="nodeLabel"><p>Encoding Components</p></span></div></foreignObject></g></g></g><g class="edgePaths"><path d="M155.023,123L155.023,129.167C155.023,135.333,155.023,147.667,155.023,158C155.023,168.333,155.023,176.667,155.023,185C155.023,193.333,155.023,201.667,155.023,209.333C155.023,217,155.023,224,155.023,227.5L155.023,231" id="L_RS_T1_0" class="edge-thickness-normal edge-pattern-solid edge-thickness-normal edge-pattern-solid flowchart-link" style=";" data-edge="true" data-et="edge" data-id="L_RS_T1_0" data-points="W3sieCI6MTU1LjAyMzQzNzUsInkiOjEyM30seyJ4IjoxNTUuMDIzNDM3NSwieSI6MTYwfSx7IngiOjE1NS4wMjM0Mzc1LCJ5IjoxODV9LHsieCI6MTU1LjAyMzQzNzUsInkiOjIxMH0seyJ4IjoxNTUuMDIzNDM3NSwieSI6MjM1fV0=" marker-end="url(#my-svg_flowchart-v2-pointEnd)"/><path d="M404.506,135L401.198,139.167C397.89,143.333,391.273,151.667,387.965,160C384.656,168.333,384.656,176.667,384.656,185C384.656,193.333,384.656,201.667,384.656,216.5C384.656,231.333,384.656,252.667,384.656,274C384.656,295.333,384.656,316.667,372.049,332.898C359.442,349.13,334.229,360.26,321.622,365.824L309.015,371.389" id="L_HS_T2_0" class="edge-thickness-normal edge-pattern-solid edge-thickness-normal edge-pattern-solid flowchart-link" style=";" data-edge="true" data-et="edge" data-id="L_HS_T2_0" data-points="W3sieCI6NDA0LjUwNjE2Nzc2MzE1NzksInkiOjEzNX0seyJ4IjozODQuNjU2MjUsInkiOjE2MH0seyJ4IjozODQuNjU2MjUsInkiOjE4NX0seyJ4IjozODQuNjU2MjUsInkiOjIxMH0seyJ4IjozODQuNjU2MjUsInkiOjI3NH0seyJ4IjozODQuNjU2MjUsInkiOjMzOH0seyJ4IjozMDUuMzU1NDY4NzUsInkiOjM3My4wMDQ1NTMxNjk3MDY2fV0=" marker-end="url(#my-svg_flowchart-v2-pointEnd)"/><path d="M724.102,135L724.102,139.167C724.102,143.333,724.102,151.667,724.102,160C724.102,168.333,724.102,176.667,724.102,185C724.102,193.333,724.102,201.667,724.102,216.5C724.102,231.333,724.102,252.667,724.102,274C724.102,295.333,724.102,316.667,724.102,338C724.102,359.333,724.102,380.667,724.102,402C724.102,423.333,724.102,444.667,724.102,466C724.102,487.333,724.102,508.667,724.102,530C724.102,551.333,724.102,572.667,724.102,587.5C724.102,602.333,724.102,610.667,724.102,619C724.102,627.333,724.102,635.667,716.284,643.704C708.466,651.742,692.83,659.483,685.013,663.354L677.195,667.225" id="L_P2RH_ADAPTOR_0" class="edge-thickness-normal edge-pattern-solid edge-thickness-normal edge-pattern-solid flowchart-link" style=";" data-edge="true" data-et="edge" data-id="L_P2RH_ADAPTOR_0" data-points="W3sieCI6NzI0LjEwMTU2MjUsInkiOjEzNX0seyJ4Ijo3MjQuMTAxNTYyNSwieSI6MTYwfSx7IngiOjcyNC4xMDE1NjI1LCJ5IjoxODV9LHsieCI6NzI0LjEwMTU2MjUsInkiOjIxMH0seyJ4Ijo3MjQuMTAxNTYyNSwieSI6Mjc0fSx7IngiOjcyNC4xMDE1NjI1LCJ5IjozMzh9LHsieCI6NzI0LjEwMTU2MjUsInkiOjQwMn0seyJ4Ijo3MjQuMTAxNTYyNSwieSI6NDY2fSx7IngiOjcyNC4xMDE1NjI1LCJ5Ijo1MzB9LHsieCI6NzI0LjEwMTU2MjUsInkiOjU5NH0seyJ4Ijo3MjQuMTAxNTYyNSwieSI6NjE5fSx7IngiOjcyNC4xMDE1NjI1LCJ5Ijo2NDR9LHsieCI6NjczLjYxMDIyOTQ5MjE4NzUsInkiOjY2OX1d" marker-end="url(#my-svg_flowchart-v2-pointEnd)"/><path d="M902.328,135L895.682,139.167C889.036,143.333,875.745,151.667,869.099,160C862.453,168.333,862.453,176.667,862.453,185C862.453,193.333,862.453,201.667,862.453,216.5C862.453,231.333,862.453,252.667,862.453,274C862.453,295.333,862.453,316.667,862.453,338C862.453,359.333,862.453,380.667,862.453,402C862.453,423.333,862.453,444.667,862.453,466C862.453,487.333,862.453,508.667,862.453,530C862.453,551.333,862.453,572.667,862.453,587.5C862.453,602.333,862.453,610.667,862.453,619C862.453,627.333,862.453,635.667,837.551,645.789C812.648,655.911,762.844,667.822,737.941,673.778L713.039,679.733" id="L_Y2RH_ADAPTOR_0" class="edge-thickness-normal edge-pattern-solid edge-thickness-normal edge-pattern-solid flowchart-link" style=";" data-edge="true" data-et="edge" data-id="L_Y2RH_ADAPTOR_0" data-points="W3sieCI6OTAyLjMyNzcxMzgxNTc4OTUsInkiOjEzNX0seyJ4Ijo4NjIuNDUzMTI1LCJ5IjoxNjB9LHsieCI6ODYyLjQ1MzEyNSwieSI6MTg1fSx7IngiOjg2Mi40NTMxMjUsInkiOjIxMH0seyJ4Ijo4NjIuNDUzMTI1LCJ5IjoyNzR9LHsieCI6ODYyLjQ1MzEyNSwieSI6MzM4fSx7IngiOjg2Mi40NTMxMjUsInkiOjQwMn0seyJ4Ijo4NjIuNDUzMTI1LCJ5Ijo0NjZ9LHsieCI6ODYyLjQ1MzEyNSwieSI6NTMwfSx7IngiOjg2Mi40NTMxMjUsInkiOjU5NH0seyJ4Ijo4NjIuNDUzMTI1LCJ5Ijo2MTl9LHsieCI6ODYyLjQ1MzEyNSwieSI6NjQ0fSx7IngiOjcwOS4xNDg0Mzc1LCJ5Ijo2ODAuNjYzNTEzNzUwMjE5fV0=" marker-end="url(#my-svg_flowchart-v2-pointEnd)"/><path d="M155.023,313L155.023,317.167C155.023,321.333,155.023,329.667,160.002,337.598C164.981,345.529,174.939,353.058,179.918,356.823L184.897,360.588" id="L_T1_T2_0" class="edge-thickness-normal edge-pattern-solid edge-thickness-normal edge-pattern-solid flowchart-link" style=";" data-edge="true" data-et="edge" data-id="L_T1_T2_0" data-points="W3sieCI6MTU1LjAyMzQzNzUsInkiOjMxM30seyJ4IjoxNTUuMDIzNDM3NSwieSI6MzM4fSx7IngiOjE4OC4wODc3MDc1MTk1MzEyNSwieSI6MzYzfV0=" marker-end="url(#my-svg_flowchart-v2-pointEnd)"/><path d="M239.668,441L239.668,445.167C239.668,449.333,239.668,457.667,239.668,465.333C239.668,473,239.668,480,239.668,483.5L239.668,487" id="L_T2_T3_0" class="edge-thickness-normal edge-pattern-solid edge-thickness-normal edge-pattern-solid flowchart-link" style=";" data-edge="true" data-et="edge" data-id="L_T2_T3_0" data-points="W3sieCI6MjM5LjY2Nzk2ODc1LCJ5Ijo0NDF9LHsieCI6MjM5LjY2Nzk2ODc1LCJ5Ijo0NjZ9LHsieCI6MjM5LjY2Nzk2ODc1LCJ5Ijo0OTF9XQ==" marker-end="url(#my-svg_flowchart-v2-pointEnd)"/><path d="M239.668,569L239.668,573.167C239.668,577.333,239.668,585.667,239.668,594C239.668,602.333,239.668,610.667,239.668,619C239.668,627.333,239.668,635.667,279.157,646.949C318.646,658.231,397.624,672.463,437.113,679.578L476.602,686.694" id="L_T3_ADAPTOR_0" class="edge-thickness-normal edge-pattern-solid edge-thickness-normal edge-pattern-solid flowchart-link" style=";" data-edge="true" data-et="edge" data-id="L_T3_ADAPTOR_0" data-points="W3sieCI6MjM5LjY2Nzk2ODc1LCJ5Ijo1Njl9LHsieCI6MjM5LjY2Nzk2ODc1LCJ5Ijo1OTR9LHsieCI6MjM5LjY2Nzk2ODc1LCJ5Ijo2MTl9LHsieCI6MjM5LjY2Nzk2ODc1LCJ5Ijo2NDR9LHsieCI6NDgwLjUzOTA2MjUsInkiOjY4Ny40MDMxNTY0NDc2MjE3fV0=" marker-end="url(#my-svg_flowchart-v2-pointEnd)"/><path d="M506.223,135L511.225,139.167C516.227,143.333,526.231,151.667,531.232,160C536.234,168.333,536.234,176.667,536.234,185C536.234,193.333,536.234,201.667,536.234,216.5C536.234,231.333,536.234,252.667,536.234,274C536.234,295.333,536.234,316.667,536.234,338C536.234,359.333,536.234,380.667,536.234,402C536.234,423.333,536.234,444.667,536.234,466C536.234,487.333,536.234,508.667,536.234,530C536.234,551.333,536.234,572.667,536.234,587.5C536.234,602.333,536.234,610.667,536.234,619C536.234,627.333,536.234,635.667,572.733,647.109C609.231,658.552,682.229,673.104,718.727,680.38L755.226,687.655" id="L_HS_DESC_0" class="edge-thickness-normal edge-pattern-solid edge-thickness-normal edge-pattern-solid flowchart-link" style=";" data-edge="true" data-et="edge" data-id="L_HS_DESC_0" data-points="W3sieCI6NTA2LjIyMzA2NzQzNDIxMDUsInkiOjEzNX0seyJ4Ijo1MzYuMjM0Mzc1LCJ5IjoxNjB9LHsieCI6NTM2LjIzNDM3NSwieSI6MTg1fSx7IngiOjUzNi4yMzQzNzUsInkiOjIxMH0seyJ4Ijo1MzYuMjM0Mzc1LCJ5IjoyNzR9LHsieCI6NTM2LjIzNDM3NSwieSI6MzM4fSx7IngiOjUzNi4yMzQzNzUsInkiOjQwMn0seyJ4Ijo1MzYuMjM0Mzc1LCJ5Ijo0NjZ9LHsieCI6NTM2LjIzNDM3NSwieSI6NTMwfSx7IngiOjUzNi4yMzQzNzUsInkiOjU5NH0seyJ4Ijo1MzYuMjM0Mzc1LCJ5Ijo2MTl9LHsieCI6NTM2LjIzNDM3NSwieSI6NjQ0fSx7IngiOjc1OS4xNDg0Mzc1LCJ5Ijo2ODguNDM3NDM2MTIyMDYxNn1d" marker-end="url(#my-svg_flowchart-v2-pointEnd)"/><path d="M990.382,135L990.931,139.167C991.479,143.333,992.575,151.667,993.124,160C993.672,168.333,993.672,176.667,993.672,185C993.672,193.333,993.672,201.667,993.672,216.5C993.672,231.333,993.672,252.667,993.672,274C993.672,295.333,993.672,316.667,993.672,338C993.672,359.333,993.672,380.667,993.672,402C993.672,423.333,993.672,444.667,993.672,466C993.672,487.333,993.672,508.667,993.672,530C993.672,551.333,993.672,572.667,993.672,587.5C993.672,602.333,993.672,610.667,993.672,619C993.672,627.333,993.672,635.667,985.396,643.717C977.12,651.767,960.568,659.534,952.292,663.417L944.015,667.301" id="L_Y2RH_DESC_0" class="edge-thickness-normal edge-pattern-solid edge-thickness-normal edge-pattern-solid flowchart-link" style=";" data-edge="true" data-et="edge" data-id="L_Y2RH_DESC_0" data-points="W3sieCI6OTkwLjM4MjQwMTMxNTc4OTUsInkiOjEzNX0seyJ4Ijo5OTMuNjcxODc1LCJ5IjoxNjB9LHsieCI6OTkzLjY3MTg3NSwieSI6MTg1fSx7IngiOjk5My42NzE4NzUsInkiOjIxMH0seyJ4Ijo5OTMuNjcxODc1LCJ5IjoyNzR9LHsieCI6OTkzLjY3MTg3NSwieSI6MzM4fSx7IngiOjk5My42NzE4NzUsInkiOjQwMn0seyJ4Ijo5OTMuNjcxODc1LCJ5Ijo0NjZ9LHsieCI6OTkzLjY3MTg3NSwieSI6NTMwfSx7IngiOjk5My42NzE4NzUsInkiOjU5NH0seyJ4Ijo5OTMuNjcxODc1LCJ5Ijo2MTl9LHsieCI6OTkzLjY3MTg3NSwieSI6NjQ0fSx7IngiOjk0MC4zOTQyODcxMDkzNzUsInkiOjY2OX1d" marker-end="url(#my-svg_flowchart-v2-pointEnd)"/></g><g class="edgeLabels"><g class="edgeLabel"><g class="label" data-id="L_RS_T1_0" transform="translate(0, 0)"><foreignObject width="0" height="0"><div xmlns="http://www.w3.org/1999/xhtml" class="labelBkg" style="display: table-cell; white-space: nowrap; line-height: 1.5; max-width: 200px; text-align: center;"><span class="edgeLabel"></span></div></foreignObject></g></g><g class="edgeLabel"><g class="label" data-id="L_HS_T2_0" transform="translate(0, 0)"><foreignObject width="0" height="0"><div xmlns="http://www.w3.org/1999/xhtml" class="labelBkg" style="display: table-cell; white-space: nowrap; line-height: 1.5; max-width: 200px; text-align: center;"><span class="edgeLabel"></span></div></foreignObject></g></g><g class="edgeLabel"><g class="label" data-id="L_P2RH_ADAPTOR_0" transform="translate(0, 0)"><foreignObject width="0" height="0"><div xmlns="http://www.w3.org/1999/xhtml" class="labelBkg" style="display: table-cell; white-space: nowrap; line-height: 1.5; max-width: 200px; text-align: center;"><span class="edgeLabel"></span></div></foreignObject></g></g><g class="edgeLabel"><g class="label" data-id="L_Y2RH_ADAPTOR_0" transform="translate(0, 0)"><foreignObject width="0" height="0"><div xmlns="http://www.w3.org/1999/xhtml" class="labelBkg" style="display: table-cell; white-space: nowrap; line-height: 1.5; max-width: 200px; text-align: center;"><span class="edgeLabel"></span></div></foreignObject></g></g><g class="edgeLabel"><g class="label" data-id="L_T1_T2_0" transform="translate(0, 0)"><foreignObject width="0" height="0"><div xmlns="http://www.w3.org/1999/xhtml" class="labelBkg" style="display: table-cell; white-space: nowrap; line-height: 1.5; max-width: 200px; text-align: center;"><span class="edgeLabel"></span></div></foreignObject></g></g><g class="edgeLabel"><g class="label" data-id="L_T2_T3_0" transform="translate(0, 0)"><foreignObject width="0" height="0"><div xmlns="http://www.w3.org/1999/xhtml" class="labelBkg" style="display: table-cell; white-space: nowrap; line-height: 1.5; max-width: 200px; text-align: center;"><span class="edgeLabel"></span></div></foreignObject></g></g><g class="edgeLabel"><g class="label" data-id="L_T3_ADAPTOR_0" transform="translate(0, 0)"><foreignObject width="0" height="0"><div xmlns="http://www.w3.org/1999/xhtml" class="labelBkg" style="display: table-cell; white-space: nowrap; line-height: 1.5; max-width: 200px; text-align: center;"><span class="edgeLabel"></span></div></foreignObject></g></g><g class="edgeLabel"><g class="label" data-id="L_HS_DESC_0" transform="translate(0, 0)"><foreignObject width="0" height="0"><div xmlns="http://www.w3.org/1999/xhtml" class="labelBkg" style="display: table-cell; white-space: nowrap; line-height: 1.5; max-width: 200px; text-align: center;"><span class="edgeLabel"></span></div></foreignObject></g></g><g class="edgeLabel"><g class="label" data-id="L_Y2RH_DESC_0" transform="translate(0, 0)"><foreignObject width="0" height="0"><div xmlns="http://www.w3.org/1999/xhtml" class="labelBkg" style="display: table-cell; white-space: nowrap; line-height: 1.5; max-width: 200px; text-align: center;"><span class="edgeLabel"></span></div></foreignObject></g></g></g><g class="nodes"><g class="node default" id="flowchart-RS-0" transform="translate(155.0234375, 84)"><rect class="basic label-container" style="fill:#fce4ec !important;stroke:#c2185b !important;stroke-width:2px !important" x="-112.0234375" y="-39" width="224.046875" height="78"/><g class="label" style="" transform="translate(-82.0234375, -24)"><rect/><foreignObject width="164.046875" height="48"><div xmlns="http://www.w3.org/1999/xhtml" style="display: table-cell; white-space: nowrap; line-height: 1.5; max-width: 200px; text-align: center;"><span class="nodeLabel"><p>R-space Lengths<br />Replication dimensions</p></span></div></foreignObject></g></g><g class="node default" id="flowchart-HS-1" transform="translate(445, 84)"><rect class="basic label-container" style="fill:#e8f5e9 !important;stroke:#388e3c !important;stroke-width:2px !important" x="-127.953125" y="-51" width="255.90625" height="102"/><g class="label" style="" transform="translate(-97.953125, -36)"><rect/><foreignObject width="195.90625" height="72"><div xmlns="http://www.w3.org/1999/xhtml" style="display: table-cell; white-space: nowrap; line-height: 1.5; max-width: 200px; text-align: center;"><span class="nodeLabel"><p>H-space Lengths<br />Hierarchical decomposition<br />[[2,2],[2,2]]</p></span></div></foreignObject></g></g><g class="node default" id="flowchart-P2RH-2" transform="translate(724.1015625, 84)"><rect class="basic label-container" style="" x="-101.1484375" y="-51" width="202.296875" height="102"/><g class="label" style="" transform="translate(-71.1484375, -36)"><rect/><foreignObject width="142.296875" height="72"><div xmlns="http://www.w3.org/1999/xhtml" style="display: table-cell; white-space: nowrap; line-height: 1.5; max-width: 200px; text-align: center;"><span class="nodeLabel"><p>P→RH Mappings<br />Thread to hierarchy<br />Major/Minor</p></span></div></foreignObject></g></g><g class="node default" id="flowchart-Y2RH-3" transform="translate(983.671875, 84)"><rect class="basic label-container" style="" x="-105.5546875" y="-51" width="211.109375" height="102"/><g class="label" style="" transform="translate(-75.5546875, -36)"><rect/><foreignObject width="151.109375" height="72"><div xmlns="http://www.w3.org/1999/xhtml" style="display: table-cell; white-space: nowrap; line-height: 1.5; max-width: 200px; text-align: center;"><span class="nodeLabel"><p>Y→RH Mappings<br />Element to hierarchy<br />Major/Minor</p></span></div></foreignObject></g></g><g class="node default" id="flowchart-ADAPTOR-4" transform="translate(594.84375, 708)"><rect class="basic label-container" style="fill:#e3f2fd !important;stroke:#1976d2 !important;stroke-width:3px !important" x="-114.3046875" y="-39" width="228.609375" height="78"/><g class="label" style="" transform="translate(-84.3046875, -24)"><rect/><foreignObject width="168.609375" height="48"><div xmlns="http://www.w3.org/1999/xhtml" style="display: table-cell; white-space: nowrap; line-height: 1.5; max-width: 200px; text-align: center;"><span class="nodeLabel"><p>ps_ys_to_xs_adaptor<br />Coordinate transformer</p></span></div></foreignObject></g></g><g class="node default" id="flowchart-DESC-5" transform="translate(857.28125, 708)"><rect class="basic label-container" style="fill:#fff3e0 !important;stroke:#f57c00 !important;stroke-width:3px !important" x="-98.1328125" y="-39" width="196.265625" height="78"/><g class="label" style="" transform="translate(-68.1328125, -24)"><rect/><foreignObject width="136.265625" height="48"><div xmlns="http://www.w3.org/1999/xhtml" style="display: table-cell; white-space: nowrap; line-height: 1.5; max-width: 200px; text-align: center;"><span class="nodeLabel"><p>ys_to_d_descriptor<br />Memory linearizer</p></span></div></foreignObject></g></g><g class="node default" id="flowchart-ENC-6" transform="translate(1111.65625, 708)"><rect class="basic label-container" style="" x="-106.2421875" y="-39" width="212.484375" height="78"/><g class="label" style="" transform="translate(-76.2421875, -24)"><rect/><foreignObject width="152.484375" height="48"><div xmlns="http://www.w3.org/1999/xhtml" style="display: table-cell; white-space: nowrap; line-height: 1.5; max-width: 200px; text-align: center;"><span class="nodeLabel"><p>Encoding<br />Original specification</p></span></div></foreignObject></g></g><g class="node default" id="flowchart-T1-7" transform="translate(155.0234375, 274)"><rect class="basic label-container" style="" x="-65.6875" y="-39" width="131.375" height="78"/><g class="label" style="" transform="translate(-35.6875, -24)"><rect/><foreignObject width="71.375" height="48"><div xmlns="http://www.w3.org/1999/xhtml" style="display: table-cell; white-space: nowrap; line-height: 1.5; max-width: 200px; text-align: center;"><span class="nodeLabel"><p>Replicate<br />Transform</p></span></div></foreignObject></g></g><g class="node default" id="flowchart-T2-8" transform="translate(239.66796875, 402)"><rect class="basic label-container" style="" x="-65.6875" y="-39" width="131.375" height="78"/><g class="label" style="" transform="translate(-35.6875, -24)"><rect/><foreignObject width="71.375" height="48"><div xmlns="http://www.w3.org/1999/xhtml" style="display: table-cell; white-space: nowrap; line-height: 1.5; max-width: 200px; text-align: center;"><span class="nodeLabel"><p>Unmerge<br />Transform</p></span></div></foreignObject></g></g><g class="node default" id="flowchart-T3-9" transform="translate(239.66796875, 530)"><rect class="basic label-container" style="" x="-65.6875" y="-39" width="131.375" height="78"/><g class="label" style="" transform="translate(-35.6875, -24)"><rect/><foreignObject width="71.375" height="48"><div xmlns="http://www.w3.org/1999/xhtml" style="display: table-cell; white-space: nowrap; line-height: 1.5; max-width: 200px; text-align: center;"><span class="nodeLabel"><p>Merge<br />Transform</p></span></div></foreignObject></g></g></g></g></g></svg>